<svg version="1.1" xmlns="http://www.w3.org/2000/svg" viewBox="0 0 1124 664" width="1124" height="664">
  <!-- svg-source:excalidraw -->
  
  <defs>
    <style class="style-fonts">
      @font-face {
        font-family: "Virgil";
        src: url("https://excalidraw.com/Virgil.woff2");
      }
      @font-face {
        font-family: "Cascadia";
        src: url("https://excalidraw.com/Cascadia.woff2");
      }
    </style>
  </defs>
  <rect x="0" y="0" width="1124" height="664" fill="#ffffff"></rect><g stroke-linecap="round" transform="translate(382 66) rotate(0 51.5 42)"><path d="M21 0 M21 0 C38.08 0.78, 53.28 2.13, 82 0 M82 0 C97.79 -1.73, 104.77 6.67, 103 21 M103 21 C102.7 31.46, 101.04 39.37, 103 63 M103 63 C104.81 76.19, 96.82 85.09, 82 84 M82 84 C68.15 82.76, 52.87 83.92, 21 84 M21 84 C5.56 85.85, 1.48 75.17, 0 63 M0 63 C-1.76 54.74, 0.22 47.38, 0 21 M0 21 C-1.48 6.6, 6.89 -1.49, 21 0" stroke="#000000" stroke-width="1.5" fill="none" stroke-dasharray="1.5 7"></path></g><g stroke-linecap="round" transform="translate(10 41) rotate(0 552 306.5)"><path d="M32 0 M32 0 C296.72 2.8, 560.05 2.65, 1072 0 M32 0 C382.7 2.65, 732.69 2.07, 1072 0 M1072 0 C1093.14 -1.29, 1102.3 9.61, 1104 32 M1072 0 C1092.73 -2.19, 1105.26 12.3, 1104 32 M1104 32 C1103.66 148.91, 1103.63 264, 1104 581 M1104 32 C1104.58 159.83, 1104.3 287.58, 1104 581 M1104 581 C1102.44 601.11, 1092.87 613.99, 1072 613 M1104 581 C1105.82 604.56, 1095.6 613.23, 1072 613 M1072 613 C736.72 609.65, 400.37 610.43, 32 613 M1072 613 C845.08 610.35, 617.45 610.81, 32 613 M32 613 C9.65 614.25, -1.11 604.18, 0 581 M32 613 C9.99 612.91, 2.16 603.56, 0 581 M0 581 C2.82 439.47, 1.95 298.44, 0 32 M0 581 C-1.47 468.16, -1.79 356.12, 0 32 M0 32 C0.66 11.52, 9.89 -1.95, 32 0 M0 32 C-0.54 11.02, 9.82 2.08, 32 0" stroke="#000000" stroke-width="1" fill="none"></path></g><g transform="translate(514 10) rotate(0 35.608333587646484 12)"><text x="0" y="0" font-family="Virgil, Segoe UI Emoji" font-size="20px" fill="#000000" text-anchor="start" style="white-space: pre;" direction="ltr">Cluster</text></g><g transform="translate(406 84) rotate(0 29.191667556762695 24)"><text x="0" y="-24" font-family="Virgil, Segoe UI Emoji" font-size="20px" fill="#000000" text-anchor="start" style="white-space: pre;" direction="ltr">Kafka</text><text x="0" y="0" font-family="Virgil, Segoe UI Emoji" font-size="20px" fill="#000000" text-anchor="start" style="white-space: pre;" direction="ltr">Topic</text></g><g transform="translate(500 97) rotate(0 83.95833587646484 12)"><text x="0" y="0" font-family="Virgil, Segoe UI Emoji" font-size="20px" fill="#000000" text-anchor="start" style="white-space: pre;" direction="ltr">N partition Topic</text></g><g stroke-linecap="round" transform="translate(85 320) rotate(0 114 27.5)"><path d="M3.66 3.18 C3.66 3.18, 3.66 3.18, 3.66 3.18 M3.66 3.18 C3.66 3.18, 3.66 3.18, 3.66 3.18 M3.4 9.58 C4.72 7.33, 7.27 5.63, 9.3 2.79 M3.4 9.58 C5.69 7.23, 7.71 4.11, 9.3 2.79 M3.14 15.98 C8.5 10.2, 10.76 4.79, 15.6 1.64 M3.14 15.98 C6.27 13.37, 9.14 9.36, 15.6 1.64 M2.88 22.37 C7.63 16.44, 13.82 9.11, 20.59 2 M2.88 22.37 C6.78 18.31, 10.88 12.67, 20.59 2 M3.27 28.02 C12.43 19.42, 17.38 11.07, 26.23 1.6 M3.27 28.02 C9.4 19.95, 15 14.42, 26.23 1.6 M3.66 33.66 C10.53 23.56, 21.7 12.8, 31.22 1.96 M3.66 33.66 C10.85 25.36, 18.64 15.92, 31.22 1.96 M3.4 40.06 C9.62 30.23, 16.46 22.35, 36.86 1.57 M3.4 40.06 C17.42 25.96, 29.3 9.99, 36.86 1.57 M1.83 47.97 C12.81 33.33, 24.21 19.23, 41.85 1.93 M1.83 47.97 C14.5 32.77, 27.65 18.05, 41.85 1.93 M4.19 51.35 C19.71 36.1, 34.66 18.01, 47.49 1.53 M4.19 51.35 C18.4 34.89, 34.16 17.43, 47.49 1.53 M6.56 54.72 C18.54 41.02, 28.16 27.96, 52.48 1.89 M6.56 54.72 C19.72 39.8, 33.91 24.22, 52.48 1.89 M11.54 55.08 C21.39 40.75, 32.25 29.34, 58.12 1.5 M11.54 55.08 C29.44 35.57, 45.41 17.05, 58.12 1.5 M16.53 55.44 C32.52 35.93, 52.91 14.73, 63.11 1.86 M16.53 55.44 C36.11 34.66, 53.8 13.06, 63.11 1.86 M21.52 55.8 C30.53 46.35, 39.52 32.65, 68.75 1.47 M21.52 55.8 C31.98 43.68, 44.31 30.37, 68.75 1.47 M27.16 55.41 C42.46 36.9, 56.21 21.26, 73.74 1.83 M27.16 55.41 C37.48 43.42, 46.32 32.96, 73.74 1.83 M32.15 55.77 C45.79 41.05, 55.47 26.11, 79.38 1.43 M32.15 55.77 C44.39 41.32, 57.41 28.11, 79.38 1.43 M37.79 55.38 C48.84 42.58, 62.04 27.57, 84.37 1.79 M37.79 55.38 C48.75 41.44, 60.67 28.16, 84.37 1.79 M42.78 55.74 C57.34 41.02, 67.89 23.33, 90.01 1.4 M42.78 55.74 C57.16 39.02, 72.63 22.79, 90.01 1.4 M48.42 55.34 C63.6 38.83, 75.07 24.93, 95 1.76 M48.42 55.34 C63.36 37.17, 80.41 18.89, 95 1.76 M53.41 55.7 C69.6 38.02, 86.17 17.38, 100.64 1.36 M53.41 55.7 C68.31 37.74, 83.85 20.76, 100.64 1.36 M59.05 55.31 C70.49 39.96, 85.18 24.96, 105.63 1.72 M59.05 55.31 C70.78 40.98, 83.02 27.83, 105.63 1.72 M64.04 55.67 C80.56 35.65, 99 16.04, 110.62 2.08 M64.04 55.67 C77.02 41.34, 88.55 26.58, 110.62 2.08 M69.68 55.27 C80.99 40.51, 94.03 25.94, 116.26 1.69 M69.68 55.27 C85.37 38.58, 100.8 21.34, 116.26 1.69 M74.67 55.63 C86.1 43.59, 95.83 30.83, 121.25 2.05 M74.67 55.63 C91.55 37.09, 107.81 17.99, 121.25 2.05 M80.31 55.24 C90.37 45.58, 100.5 32.6, 126.89 1.65 M80.31 55.24 C97.01 35.02, 114.87 15.07, 126.89 1.65 M85.3 55.6 C98.43 36.86, 115.73 21.77, 131.88 2.01 M85.3 55.6 C93.64 45.1, 104.23 33.58, 131.88 2.01 M90.94 55.2 C105.89 37.8, 124.8 14.93, 137.52 1.62 M90.94 55.2 C109.83 35.07, 125.86 14.21, 137.52 1.62 M95.93 55.56 C108.23 41.11, 122.58 21.95, 142.51 1.98 M95.93 55.56 C108.99 41.02, 122.42 25.52, 142.51 1.98 M101.57 55.17 C115.72 41.58, 129.53 24.73, 148.15 1.58 M101.57 55.17 C112.94 41.39, 125.3 26.35, 148.15 1.58 M106.56 55.53 C115.77 43.34, 126.56 34.87, 153.14 1.94 M106.56 55.53 C121.81 38.3, 136.87 21.83, 153.14 1.94 M111.54 55.89 C125.16 38.87, 142.58 21.37, 158.78 1.55 M111.54 55.89 C123.86 42.33, 135.93 27.64, 158.78 1.55 M117.19 55.49 C135.99 34.92, 149.22 17.52, 163.77 1.91 M117.19 55.49 C127.07 43.55, 138.72 32.14, 163.77 1.91 M122.17 55.85 C133.88 43.09, 144.36 33.85, 169.41 1.51 M122.17 55.85 C138.99 36.05, 157.5 15.8, 169.41 1.51 M127.82 55.46 C137.82 46.72, 146.92 31.76, 174.4 1.87 M127.82 55.46 C145.5 34.65, 164.11 13.03, 174.4 1.87 M132.8 55.82 C149.85 38.72, 167.12 18.15, 180.04 1.48 M132.8 55.82 C146.93 41.83, 158.87 26.61, 180.04 1.48 M138.45 55.42 C154.12 38.22, 165.89 22.26, 185.03 1.84 M138.45 55.42 C147.46 43.96, 158.83 32.34, 185.03 1.84 M143.43 55.78 C157.15 40.1, 172.01 20.94, 190.67 1.45 M143.43 55.78 C155.1 42.77, 167.78 27.83, 190.67 1.45 M149.08 55.39 C162.4 40.38, 177.81 22.6, 195.66 1.81 M149.08 55.39 C165.26 37.31, 181.14 20.23, 195.66 1.81 M154.06 55.75 C170.87 38.93, 186.04 23.08, 200.64 2.17 M154.06 55.75 C166.16 39.71, 179.49 24.59, 200.64 2.17 M159.71 55.36 C168.16 44.55, 179.1 31.82, 206.29 1.77 M159.71 55.36 C169.55 41.9, 180.3 29.68, 206.29 1.77 M164.69 55.72 C183.73 34.15, 199.76 15.98, 211.27 2.13 M164.69 55.72 C177.47 41.44, 190.4 25.9, 211.27 2.13 M170.34 55.32 C185.92 35.83, 204.33 15.25, 218.23 0.23 M170.34 55.32 C180.87 43.18, 191.66 29.88, 218.23 0.23 M175.32 55.68 C193.77 36.94, 209.83 19.86, 221.9 2.1 M175.32 55.68 C189.07 39.56, 202.4 23.95, 221.9 2.1 M180.97 55.29 C195.8 39.16, 209.32 23.59, 225.58 3.97 M180.97 55.29 C191.4 42, 202.5 29.92, 225.58 3.97 M185.95 55.65 C196.33 44.87, 205.12 33.08, 227.29 8.1 M185.95 55.65 C199.58 39.84, 212.39 25.27, 227.29 8.1 M191.6 55.25 C199.8 44.99, 208.49 36.32, 227.68 13.74 M191.6 55.25 C200.48 43.22, 210.62 31.19, 227.68 13.74 M196.58 55.61 C206.76 43.59, 221.9 29.31, 227.42 20.14 M196.58 55.61 C204.27 46.8, 212.42 36.83, 227.42 20.14 M201.57 55.97 C212.29 44.23, 220.63 33.06, 227.81 25.78 M201.57 55.97 C210.59 45.07, 218.34 34.69, 227.81 25.78 M207.21 55.58 C213.14 50.27, 217.13 45.64, 227.55 32.18 M207.21 55.58 C214.08 45.78, 222.98 37.76, 227.55 32.18 M212.2 55.94 C216.36 48.93, 220.84 42.4, 227.95 37.83 M212.2 55.94 C216.02 50.26, 220.9 45.43, 227.95 37.83 M216.53 57.05 C218.12 52.39, 222.49 48.72, 228.34 43.47 M216.53 57.05 C219.28 53.11, 222.67 50.12, 228.34 43.47" stroke="#4c6ef5" stroke-width="0.5" fill="none"></path><path d="M13.75 0 M13.75 0 C82.06 2.76, 150.12 -0.11, 214.25 0 M13.75 0 C86.07 -0.7, 158.83 -0.72, 214.25 0 M214.25 0 C225.17 -1.64, 227.97 3.83, 228 13.75 M214.25 0 C221.13 1.09, 229.31 4.07, 228 13.75 M228 13.75 C226 21.11, 228.58 29.46, 228 41.25 M228 13.75 C227.46 20.21, 228.32 26.46, 228 41.25 M228 41.25 C227.82 50.93, 222.42 54.78, 214.25 55 M228 41.25 C227.19 50.55, 225.34 55.95, 214.25 55 M214.25 55 C134.53 57.57, 54.63 56.32, 13.75 55 M214.25 55 C174.25 55.47, 133.02 54.64, 13.75 55 M13.75 55 C3.84 54.13, -0.55 51.57, 0 41.25 M13.75 55 C5.47 55.09, 0.35 50.46, 0 41.25 M0 41.25 C-0.82 35.87, 1.48 28.59, 0 13.75 M0 41.25 C0.14 32.47, 0.84 23.08, 0 13.75 M0 13.75 C1.05 3.68, 5.64 0.96, 13.75 0 M0 13.75 C1.23 5.72, 3.02 2.07, 13.75 0" stroke="#000000" stroke-width="1" fill="none"></path></g><g transform="translate(726 70) rotate(0 183.96665954589844 24)"><text x="0" y="-24" font-family="Virgil, Segoe UI Emoji" font-size="20px" fill="#000000" text-anchor="start" style="white-space: pre;" direction="ltr">a Tasks i.e groups</text><text x="0" y="0" font-family="Virgil, Segoe UI Emoji" font-size="20px" fill="#000000" text-anchor="start" style="white-space: pre;" direction="ltr">b Parallels i.e Threads on a machine.</text></g><g stroke-linecap="round" transform="translate(57 273) rotate(0 180.5 171.5)"><path d="M32 0 M32 0 C142.98 1.3, 253.85 0.65, 329 0 M32 0 C105.94 -1.34, 180.25 -1.25, 329 0 M329 0 C350.18 1.49, 360.99 10.41, 361 32 M329 0 C350.89 -0.19, 363.19 9.61, 361 32 M361 32 C360.03 119.23, 360.81 205.03, 361 311 M361 32 C361.88 104.47, 362.55 176.97, 361 311 M361 311 C360.79 331.27, 351.82 344.53, 329 343 M361 311 C359.79 331.67, 348.85 343.02, 329 343 M329 343 C245.29 343.45, 162.42 343.22, 32 343 M329 343 C266.54 343.05, 203.54 342.55, 32 343 M32 343 C9.48 343.44, 0.49 332.31, 0 311 M32 343 C9.71 344.32, 1.14 334.4, 0 311 M0 311 C0.84 209.66, 1.8 107.19, 0 32 M0 311 C-1.16 216.84, -0.89 122.53, 0 32 M0 32 C0.14 8.68, 12.34 1.24, 32 0 M0 32 C1.32 12.27, 12.89 -0.95, 32 0" stroke="#000000" stroke-width="1" fill="none"></path></g><g stroke-linecap="round" transform="translate(75 460.5) rotate(0 88.5 60)"><path d="M30 0 M30 0 C77.85 0.86, 120.46 -1.06, 147 0 M30 0 C58.53 1.86, 85.76 1.64, 147 0 M147 0 C166.07 0.43, 175.67 10.82, 177 30 M147 0 C168.73 -1.88, 175.64 7.82, 177 30 M177 30 C176.48 47.32, 176.42 61.58, 177 90 M177 30 C176.03 52.25, 177.14 74.51, 177 90 M177 90 C176.34 110.98, 165.36 119.83, 147 120 M177 90 C175.18 109.65, 167.13 118.1, 147 120 M147 120 C120.14 122, 94.17 120.02, 30 120 M147 120 C107.47 119.93, 66.94 120.66, 30 120 M30 120 C9.83 118.85, 0.67 109.73, 0 90 M30 120 C9.2 119.12, -0.8 110.27, 0 90 M0 90 C-0.18 73.8, 0.24 55.65, 0 30 M0 90 C-0.55 70.46, 0 51.12, 0 30 M0 30 C1.27 8.89, 10.14 1.11, 30 0 M0 30 C-1.85 11.66, 10.22 0.25, 30 0" stroke="#000000" stroke-width="1" fill="none"></path></g><g transform="translate(157 248) rotate(0 39.90833282470703 12)"><text x="0" y="0" font-family="Virgil, Segoe UI Emoji" font-size="20px" fill="#000000" text-anchor="start" style="white-space: pre;" direction="ltr">Group A</text></g><g stroke-linecap="round" transform="translate(287.5 457) rotate(0 30.5 61)"><path d="M15.25 0 M15.25 0 C25.92 0.22, 35.46 -1.04, 45.75 0 M15.25 0 C22.58 0.56, 30 0.68, 45.75 0 M45.75 0 C57.13 1.63, 61.72 3.75, 61 15.25 M45.75 0 C57.67 1.14, 60.62 7.3, 61 15.25 M61 15.25 C59.5 41.59, 58.81 67, 61 106.75 M61 15.25 C60.39 48.36, 61.67 80.15, 61 106.75 M61 106.75 C61.89 118.84, 56.13 123.82, 45.75 122 M61 106.75 C62.63 119, 57.64 120.05, 45.75 122 M45.75 122 C36.77 122.29, 31.81 121.3, 15.25 122 M45.75 122 C37.4 122.36, 28.53 122.41, 15.25 122 M15.25 122 C4.35 122.9, -1.43 114.97, 0 106.75 M15.25 122 C4.1 124.25, 0.68 117.49, 0 106.75 M0 106.75 C-1.33 74.7, 1.48 43.86, 0 15.25 M0 106.75 C1.79 78.5, 0.6 50.46, 0 15.25 M0 15.25 C1.5 4.26, 6.46 -0.91, 15.25 0 M0 15.25 C-1.6 5.56, 6.28 -1.31, 15.25 0" stroke="#000000" stroke-width="1" fill="none"></path></g><g transform="translate(162 289) rotate(0 40.61666488647461 12)"><text x="0" y="0" font-family="Virgil, Segoe UI Emoji" font-size="20px" fill="#000000" text-anchor="start" style="white-space: pre;" direction="ltr">LEADER</text></g><g transform="translate(280 586) rotate(0 45.65208117167151 8.5)"><text x="0" y="0" font-family="Virgil, Segoe UI Emoji" font-size="14.166666666666663px" fill="#000000" text-anchor="start" style="white-space: pre;" direction="ltr">FOLLOWER-2</text></g><g transform="translate(103.55000305175781 589) rotate(0 46.04166793823242 9.201943154330252)"><text x="0" y="0" font-family="Virgil, Segoe UI Emoji" font-size="15.336571923883783px" fill="#000000" text-anchor="start" style="white-space: pre;" direction="ltr">FOLLOWER-1</text></g><g stroke-linecap="round"><g transform="translate(157 381) rotate(0 -16.064617801457644 40.634105838090164)"><path d="M0.22 0.25 C-5.18 13.64, -26.88 67.36, -32.35 81.02" stroke="#000000" stroke-width="1.5" fill="none" stroke-dasharray="1.5 7"></path></g></g><mask></mask><g stroke-linecap="round"><g transform="translate(204 380) rotate(0 53.630153297632944 37.129830039292585)"><path d="M-0.75 -0.09 C17.35 12.18, 89.72 61.73, 108.01 74.35" stroke="#000000" stroke-width="1.5" fill="none" stroke-dasharray="1.5 7"></path></g></g><mask></mask><g transform="translate(286 393) rotate(0 33.959200620651245 14.5)"><text x="0" y="-14.499999999999995" font-family="Virgil, Segoe UI Emoji" font-size="12.083333333333325px" fill="#000000" text-anchor="start" style="white-space: pre;" direction="ltr">Replicating </text><text x="0" y="0" font-family="Virgil, Segoe UI Emoji" font-size="12.083333333333325px" fill="#000000" text-anchor="start" style="white-space: pre;" direction="ltr">State</text></g><g transform="translate(66.04079937934875 398.5) rotate(0 33.959200620651245 14.5)"><text x="0" y="-14.499999999999995" font-family="Virgil, Segoe UI Emoji" font-size="12.083333333333325px" fill="#000000" text-anchor="start" style="white-space: pre;" direction="ltr">Replicating </text><text x="0" y="0" font-family="Virgil, Segoe UI Emoji" font-size="12.083333333333325px" fill="#000000" text-anchor="start" style="white-space: pre;" direction="ltr">State</text></g><g stroke-linecap="round" transform="translate(208 323) rotate(0 48 21)"><path d="M10.5 0 M10.5 0 C29.29 0.81, 49.36 1.93, 85.5 0 M85.5 0 C94.08 -0.85, 94.07 4.75, 96 10.5 M96 10.5 C97.13 18.91, 95.31 26.24, 96 31.5 M96 31.5 C97.65 36.63, 94.04 43.12, 85.5 42 M85.5 42 C66.52 40.47, 49.52 40.94, 10.5 42 M10.5 42 C5.06 42.17, -1.59 39.34, 0 31.5 M0 31.5 C-1.49 27.3, -1.23 20.76, 0 10.5 M0 10.5 C-0.22 2.78, 2.5 0.23, 10.5 0" stroke="#000000" stroke-width="4.5" fill="none" stroke-dasharray="1.5 10"></path></g><g transform="translate(215.06666564941406 332) rotate(0 40.93333435058594 12)"><text x="40.93333435058594" y="0" font-family="Virgil, Segoe UI Emoji" font-size="20px" fill="#000000" text-anchor="middle" style="white-space: pre;" direction="ltr">rocks db</text></g><g stroke-linecap="round" transform="translate(130 527) rotate(0 48 21)"><path d="M10.5 0 M10.5 0 C26.7 -2.38, 47.76 -2.28, 85.5 0 M85.5 0 C92.63 -1.86, 96.79 3.35, 96 10.5 M96 10.5 C97.17 15.33, 96.67 21.95, 96 31.5 M96 31.5 C95.18 38.88, 91.31 42.32, 85.5 42 M85.5 42 C68.55 40.63, 52.91 41.39, 10.5 42 M10.5 42 C5.32 41.03, -0.68 38.96, 0 31.5 M0 31.5 C1.65 26.63, 1.23 17.29, 0 10.5 M0 10.5 C-1.34 1.62, 2.8 0.98, 10.5 0" stroke="#000000" stroke-width="4.5" fill="none" stroke-dasharray="1.5 10"></path></g><g transform="translate(137.06666564941406 536) rotate(0 40.93333435058594 12)"><text x="40.93333435058594" y="0" font-family="Virgil, Segoe UI Emoji" font-size="20px" fill="#000000" text-anchor="middle" style="white-space: pre;" direction="ltr">rocks db</text></g><g stroke-linecap="round" transform="translate(287 516) rotate(0 32 29)"><path d="M14.5 0 M14.5 0 C25.08 -1.26, 37.68 0.03, 49.5 0 M49.5 0 C60.16 -0.29, 64.49 6.04, 64 14.5 M64 14.5 C64.37 20.58, 62.97 31.19, 64 43.5 M64 43.5 C64.18 51.17, 60.84 56.76, 49.5 58 M49.5 58 C36.28 58.42, 24.01 56.73, 14.5 58 M14.5 58 C6.68 60, 1.42 52.7, 0 43.5 M0 43.5 C1.25 36.1, -0.54 29.76, 0 14.5 M0 14.5 C-0.88 5.89, 6.6 1.84, 14.5 0" stroke="#000000" stroke-width="4.5" fill="none" stroke-dasharray="1.5 10"></path></g><g transform="translate(293.84166717529297 521) rotate(0 25.15833282470703 24)"><text x="25.15833282470703" y="-24" font-family="Virgil, Segoe UI Emoji" font-size="20px" fill="#000000" text-anchor="middle" style="white-space: pre;" direction="ltr">rocks</text><text x="25.15833282470703" y="0" font-family="Virgil, Segoe UI Emoji" font-size="20px" fill="#000000" text-anchor="middle" style="white-space: pre;" direction="ltr">db</text></g><g stroke-linecap="round" transform="translate(554.5 320) rotate(0 114 27.5)"><path d="M3.66 3.18 C3.66 3.18, 3.66 3.18, 3.66 3.18 M3.66 3.18 C3.66 3.18, 3.66 3.18, 3.66 3.18 M3.4 9.58 C4.69 7.19, 6.8 5.54, 9.3 2.79 M3.4 9.58 C4.56 7.42, 6.66 6.07, 9.3 2.79 M3.14 15.98 C7.19 12.52, 13.27 6.66, 15.6 1.64 M3.14 15.98 C6.23 12.08, 9.09 9.16, 15.6 1.64 M2.88 22.37 C8.12 14.54, 12.69 9.08, 20.59 2 M2.88 22.37 C8.32 15.63, 13.7 10.27, 20.59 2 M3.27 28.02 C12.46 16.42, 22.6 6.09, 26.23 1.6 M3.27 28.02 C10.43 19.96, 16.09 13.03, 26.23 1.6 M3.66 33.66 C10.09 27.85, 14.2 19.48, 31.22 1.96 M3.66 33.66 C13.98 21.24, 24.81 11.42, 31.22 1.96 M3.4 40.06 C12.3 27.48, 22.51 16.57, 36.86 1.57 M3.4 40.06 C10.71 30.1, 20.34 20.8, 36.86 1.57 M1.83 47.97 C8.49 36.85, 19.14 26.73, 41.85 1.93 M1.83 47.97 C15.91 32.74, 30.69 16.01, 41.85 1.93 M4.19 51.35 C18.89 35.52, 31.41 19.09, 47.49 1.53 M4.19 51.35 C17.34 34.64, 31.57 18.98, 47.49 1.53 M6.56 54.72 C17.98 44.42, 29.26 29.76, 52.48 1.89 M6.56 54.72 C22.72 37.24, 37.62 20.42, 52.48 1.89 M11.54 55.08 C20.91 44.3, 29.57 34.25, 58.12 1.5 M11.54 55.08 C22.61 42.42, 34.62 28.45, 58.12 1.5 M16.53 55.44 C26.99 42.74, 37.95 34.38, 63.11 1.86 M16.53 55.44 C27.77 42.95, 40.42 28.54, 63.11 1.86 M21.52 55.8 C33.91 43.02, 42.52 29.39, 68.75 1.47 M21.52 55.8 C34.67 39.4, 50.09 23.52, 68.75 1.47 M27.16 55.41 C39.88 39.9, 54.69 25.19, 73.74 1.83 M27.16 55.41 C39.29 40.92, 53.63 26.49, 73.74 1.83 M32.15 55.77 C51.34 35.67, 65.91 17.17, 79.38 1.43 M32.15 55.77 C45.41 40.88, 58.01 27.37, 79.38 1.43 M37.79 55.38 C49.85 38.9, 61.69 27.92, 84.37 1.79 M37.79 55.38 C55.08 34.8, 73.18 12.49, 84.37 1.79 M42.78 55.74 C59.96 39.22, 77.21 20.1, 90.01 1.4 M42.78 55.74 C58.31 38.27, 72.18 20.82, 90.01 1.4 M48.42 55.34 C61.25 41.59, 72.91 24.4, 95 1.76 M48.42 55.34 C59.71 42.93, 69.59 32.27, 95 1.76 M53.41 55.7 C68.11 38.48, 84.98 20.09, 100.64 1.36 M53.41 55.7 C66.95 38.12, 80.78 23.45, 100.64 1.36 M59.05 55.31 C76.62 33.53, 94.53 14.71, 105.63 1.72 M59.05 55.31 C71.38 41.83, 82.82 28.08, 105.63 1.72 M64.04 55.67 C75.91 41, 90.65 22.02, 110.62 2.08 M64.04 55.67 C76.16 42.95, 86.46 28.68, 110.62 2.08 M69.68 55.27 C84.17 37.74, 103.17 17.6, 116.26 1.69 M69.68 55.27 C87.33 35.79, 104.55 15.22, 116.26 1.69 M74.67 55.63 C87.27 43.58, 98.83 28.51, 121.25 2.05 M74.67 55.63 C87.59 39.67, 100.45 25.52, 121.25 2.05 M80.31 55.24 C88.88 43.52, 100.94 31.21, 126.89 1.65 M80.31 55.24 C95.84 36.77, 110.78 18.53, 126.89 1.65 M85.3 55.6 C95.68 42.7, 105.75 31.69, 131.88 2.01 M85.3 55.6 C98.98 40.24, 112.15 25.91, 131.88 2.01 M90.94 55.2 C101.11 43.26, 110.68 32.56, 137.52 1.62 M90.94 55.2 C103.91 39.02, 117.43 24.87, 137.52 1.62 M95.93 55.56 C115.37 36.67, 132.69 15.75, 142.51 1.98 M95.93 55.56 C107.75 40.48, 122.09 27.27, 142.51 1.98 M101.57 55.17 C112.1 41.91, 124.88 28.49, 148.15 1.58 M101.57 55.17 C112.46 42.46, 123.7 28.65, 148.15 1.58 M106.56 55.53 C116.69 43.73, 130.46 28.86, 153.14 1.94 M106.56 55.53 C124.52 35.04, 143.22 13.58, 153.14 1.94 M111.54 55.89 C127.84 35.75, 142.4 16.67, 158.78 1.55 M111.54 55.89 C123.08 44.26, 134.15 30.49, 158.78 1.55 M117.19 55.49 C125.66 43.23, 138.89 31.83, 163.77 1.91 M117.19 55.49 C132.35 37.72, 146.29 19.98, 163.77 1.91 M122.17 55.85 C134.56 42.33, 146.34 30.19, 169.41 1.51 M122.17 55.85 C137.91 36.84, 154.13 17.91, 169.41 1.51 M127.82 55.46 C138.78 44.64, 147.06 32.95, 174.4 1.87 M127.82 55.46 C140.29 40.9, 153.89 24.52, 174.4 1.87 M132.8 55.82 C143.22 46.86, 151.4 35.14, 180.04 1.48 M132.8 55.82 C145.22 39.71, 159.26 25.83, 180.04 1.48 M138.45 55.42 C153.9 40.74, 165.44 22.23, 185.03 1.84 M138.45 55.42 C149.12 43.29, 159.02 32.85, 185.03 1.84 M143.43 55.78 C153.95 46.94, 161.86 35.69, 190.67 1.45 M143.43 55.78 C161.11 35.04, 177.84 14.58, 190.67 1.45 M149.08 55.39 C168.91 36.76, 185.97 14.02, 195.66 1.81 M149.08 55.39 C158.85 43.75, 169.11 32.51, 195.66 1.81 M154.06 55.75 C168.11 40.16, 182.46 23.92, 200.64 2.17 M154.06 55.75 C164.01 44.48, 173.17 34.72, 200.64 2.17 M159.71 55.36 C176.97 31.91, 198.53 13.85, 206.29 1.77 M159.71 55.36 C172.54 40.6, 184.63 25.07, 206.29 1.77 M164.69 55.72 C180.31 36.17, 200.39 16.74, 211.27 2.13 M164.69 55.72 C184.06 34.87, 200.43 14.42, 211.27 2.13 M170.34 55.32 C181.68 42.77, 194.58 25.33, 218.23 0.23 M170.34 55.32 C187.77 35.39, 204.97 15.28, 218.23 0.23 M175.32 55.68 C187.99 44.16, 200.64 30.88, 221.9 2.1 M175.32 55.68 C192.82 36.9, 210.11 16.15, 221.9 2.1 M180.97 55.29 C197.73 38.03, 211.95 18.3, 225.58 3.97 M180.97 55.29 C197.63 34.55, 214.27 16.37, 225.58 3.97 M185.95 55.65 C193.49 44.84, 204.78 32.83, 227.29 8.1 M185.95 55.65 C195.2 46.22, 203.7 35.3, 227.29 8.1 M191.6 55.25 C200.16 46.8, 204.89 40.02, 227.68 13.74 M191.6 55.25 C204.63 41.56, 215.78 27.68, 227.68 13.74 M196.58 55.61 C203.82 48.08, 208.84 38.3, 227.42 20.14 M196.58 55.61 C205.21 47.59, 212.34 38.21, 227.42 20.14 M201.57 55.97 C207.14 49.79, 213.21 41.5, 227.81 25.78 M201.57 55.97 C211.22 43.85, 221.83 32.4, 227.81 25.78 M207.21 55.58 C212.86 48.22, 221.69 40.92, 227.55 32.18 M207.21 55.58 C212.32 51.29, 216.44 46.26, 227.55 32.18 M212.2 55.94 C216.2 51.46, 220.97 48.34, 227.95 37.83 M212.2 55.94 C215.09 51.51, 218.16 48.44, 227.95 37.83 M216.53 57.05 C220.09 50.92, 225.38 46.76, 228.34 43.47 M216.53 57.05 C219.29 52.46, 224.16 49.07, 228.34 43.47" stroke="#4c6ef5" stroke-width="0.5" fill="none"></path><path d="M13.75 0 M13.75 0 C56.29 -1.32, 94.79 0.98, 214.25 0 M13.75 0 C64.36 1.75, 113.41 2, 214.25 0 M214.25 0 C223.55 -1.48, 227.86 2.75, 228 13.75 M214.25 0 C221.58 0.3, 229.34 5.11, 228 13.75 M228 13.75 C227.99 20.5, 228.81 28.85, 228 41.25 M228 13.75 C227.32 20.99, 229.09 29.61, 228 41.25 M228 41.25 C226.02 49.54, 224.65 53.43, 214.25 55 M228 41.25 C229.63 48.26, 222.92 54.08, 214.25 55 M214.25 55 C163.4 55.98, 112.8 54.63, 13.75 55 M214.25 55 C148.34 55.13, 81.37 55.13, 13.75 55 M13.75 55 C5.2 56.53, -1.85 50.68, 0 41.25 M13.75 55 C4.78 55.33, -0.39 52.19, 0 41.25 M0 41.25 C-1.26 33.03, 1.46 23.23, 0 13.75 M0 41.25 C0.86 33.55, -0.4 24.85, 0 13.75 M0 13.75 C0.02 6.17, 2.92 1.35, 13.75 0 M0 13.75 C-2.13 4.71, 5.48 -1.83, 13.75 0" stroke="#000000" stroke-width="1" fill="none"></path></g><g stroke-linecap="round" transform="translate(526.5 273) rotate(0 180.5 171.5)"><path d="M32 0 M32 0 C96.28 -0.94, 157.06 -0.29, 329 0 M32 0 C135.38 2.59, 239.14 1.49, 329 0 M329 0 C350.97 -0.37, 359.32 11.86, 361 32 M329 0 C348.31 -0.82, 359.7 11.71, 361 32 M361 32 C359.77 89.17, 357.91 144.67, 361 311 M361 32 C362.69 110.69, 363.06 190.04, 361 311 M361 311 C361.42 331.28, 350.46 343.04, 329 343 M361 311 C361.88 334.49, 350.04 342.37, 329 343 M329 343 C254.13 344.35, 178.46 344.12, 32 343 M329 343 C268.96 342.83, 206.92 342.31, 32 343 M32 343 C9.11 344.75, -1.63 332.07, 0 311 M32 343 C11.11 341.29, 1.45 330.82, 0 311 M0 311 C-0.02 236.79, 0.44 160.94, 0 32 M0 311 C-0.27 244.13, 0.43 177.2, 0 32 M0 32 C1.44 12.25, 10.42 1.27, 32 0 M0 32 C-0.07 10.11, 8.92 0.13, 32 0" stroke="#000000" stroke-width="1" fill="none"></path></g><g stroke-linecap="round" transform="translate(544.5 460.5) rotate(0 88.5 60)"><path d="M30 0 M30 0 C61.57 -2.27, 94.04 -0.03, 147 0 M30 0 C68.41 0.04, 104.64 0.98, 147 0 M147 0 C166.63 -1.68, 178.2 8.24, 177 30 M147 0 C166.18 -1.3, 178.04 7.76, 177 30 M177 30 C177.92 41.56, 176.52 56.61, 177 90 M177 30 C176.88 52.99, 177.13 74.85, 177 90 M177 90 C175.95 110.13, 167.04 120.76, 147 120 M177 90 C179.16 109.71, 166.37 118.89, 147 120 M147 120 C124.59 118.41, 100.73 117.97, 30 120 M147 120 C105.15 120.09, 61.6 120.26, 30 120 M30 120 C11.75 118.37, -0.27 110.39, 0 90 M30 120 C8.29 121.45, -1.52 109.32, 0 90 M0 90 C2.18 72.61, 1.7 52.92, 0 30 M0 90 C-0.84 73.25, -1.36 57.31, 0 30 M0 30 C1.58 9.75, 11.27 -0.06, 30 0 M0 30 C-0.56 8.25, 10.13 -1.57, 30 0" stroke="#000000" stroke-width="1" fill="none"></path></g><g transform="translate(628.5 246) rotate(0 40.61666488647461 12)"><text x="0" y="0" font-family="Virgil, Segoe UI Emoji" font-size="20px" fill="#000000" text-anchor="start" style="white-space: pre;" direction="ltr">Group B</text></g><g stroke-linecap="round" transform="translate(757 457) rotate(0 30.5 61)"><path d="M15.25 0 M15.25 0 C27.93 1.18, 39.34 -1.72, 45.75 0 M15.25 0 C21.86 0.51, 29.92 -0.65, 45.75 0 M45.75 0 C57.11 -1.76, 60.29 3.95, 61 15.25 M45.75 0 C56.96 -2.24, 59.26 5.59, 61 15.25 M61 15.25 C60.75 44.68, 62.8 76.37, 61 106.75 M61 15.25 C60.1 44.69, 59.93 73.78, 61 106.75 M61 106.75 C61.04 117.68, 57.79 121.75, 45.75 122 M61 106.75 C60.37 115.8, 53.65 122.53, 45.75 122 M45.75 122 C37.73 119.86, 29.36 120.97, 15.25 122 M45.75 122 C34.17 120.94, 22.94 120.9, 15.25 122 M15.25 122 C4.82 122.39, -1.48 118.18, 0 106.75 M15.25 122 C3.57 121.32, -0.03 114.92, 0 106.75 M0 106.75 C0.42 78.34, -1.19 53.69, 0 15.25 M0 106.75 C-0.56 88.74, 1.2 69.17, 0 15.25 M0 15.25 C1.27 5.02, 4.6 -1.52, 15.25 0 M0 15.25 C0.13 3.52, 3.83 2.07, 15.25 0" stroke="#000000" stroke-width="1" fill="none"></path></g><g transform="translate(631.5 289) rotate(0 40.61666488647461 12)"><text x="0" y="0" font-family="Virgil, Segoe UI Emoji" font-size="20px" fill="#000000" text-anchor="start" style="white-space: pre;" direction="ltr">LEADER</text></g><g transform="translate(749.5 586) rotate(0 45.65208117167151 8.5)"><text x="0" y="0" font-family="Virgil, Segoe UI Emoji" font-size="14.166666666666663px" fill="#000000" text-anchor="start" style="white-space: pre;" direction="ltr">FOLLOWER-2</text></g><g transform="translate(573.0500030517578 589) rotate(0 46.04166793823242 9.201943154330252)"><text x="0" y="0" font-family="Virgil, Segoe UI Emoji" font-size="15.336571923883783px" fill="#000000" text-anchor="start" style="white-space: pre;" direction="ltr">FOLLOWER-1</text></g><g stroke-linecap="round"><g transform="translate(626.5 381) rotate(0 -16.16620148345828 40.288191985338926)"><path d="M-1.14 -0.68 C-6.44 12.82, -25.88 67.41, -31.19 81.25" stroke="#000000" stroke-width="1.5" fill="none" stroke-dasharray="1.5 7"></path></g></g><mask></mask><g stroke-linecap="round"><g transform="translate(673.5 380) rotate(0 53.788191985338926 37.415324295312175)"><path d="M-0.68 0.81 C17.32 13.34, 89.91 61.69, 108.25 74.02" stroke="#000000" stroke-width="1.5" fill="none" stroke-dasharray="1.5 7"></path></g></g><mask></mask><g transform="translate(755.5 393) rotate(0 33.959200620651245 14.5)"><text x="0" y="-14.499999999999995" font-family="Virgil, Segoe UI Emoji" font-size="12.083333333333325px" fill="#000000" text-anchor="start" style="white-space: pre;" direction="ltr">Replicating </text><text x="0" y="0" font-family="Virgil, Segoe UI Emoji" font-size="12.083333333333325px" fill="#000000" text-anchor="start" style="white-space: pre;" direction="ltr">State</text></g><g transform="translate(535.5407993793488 398.5) rotate(0 33.959200620651245 14.5)"><text x="0" y="-14.499999999999995" font-family="Virgil, Segoe UI Emoji" font-size="12.083333333333325px" fill="#000000" text-anchor="start" style="white-space: pre;" direction="ltr">Replicating </text><text x="0" y="0" font-family="Virgil, Segoe UI Emoji" font-size="12.083333333333325px" fill="#000000" text-anchor="start" style="white-space: pre;" direction="ltr">State</text></g><g stroke-linecap="round" transform="translate(677.5 323) rotate(0 48 21)"><path d="M10.5 0 M10.5 0 C36.35 1.18, 62.53 -1.24, 85.5 0 M85.5 0 C92.94 0.5, 96.78 1.59, 96 10.5 M96 10.5 C97.58 16.55, 94.77 23.16, 96 31.5 M96 31.5 C95.29 38.92, 91.45 42.13, 85.5 42 M85.5 42 C62.6 42.15, 39.23 40.73, 10.5 42 M10.5 42 C3.96 41.81, 1.14 37.02, 0 31.5 M0 31.5 C-0.61 26.09, 2.15 15.26, 0 10.5 M0 10.5 C0.53 1.95, 5.25 -1.63, 10.5 0" stroke="#000000" stroke-width="4.5" fill="none" stroke-dasharray="1.5 10"></path></g><g transform="translate(684.5666656494141 332) rotate(0 40.93333435058594 12)"><text x="40.93333435058594" y="0" font-family="Virgil, Segoe UI Emoji" font-size="20px" fill="#000000" text-anchor="middle" style="white-space: pre;" direction="ltr">rocks db</text></g><g stroke-linecap="round" transform="translate(599.5 527) rotate(0 48 21)"><path d="M10.5 0 M10.5 0 C28.38 -1.85, 50.59 0.16, 85.5 0 M85.5 0 C93.28 -1.91, 95.39 3.17, 96 10.5 M96 10.5 C94.97 19.65, 95.46 26.54, 96 31.5 M96 31.5 C94.95 38.63, 92.54 42.76, 85.5 42 M85.5 42 C54.99 39.82, 26.87 41.6, 10.5 42 M10.5 42 C4.64 40.52, 0.84 36.59, 0 31.5 M0 31.5 C2.04 21.93, 0.61 14.57, 0 10.5 M0 10.5 C1.75 1.87, 3.23 0.39, 10.5 0" stroke="#000000" stroke-width="4.5" fill="none" stroke-dasharray="1.5 10"></path></g><g transform="translate(606.5666656494141 536) rotate(0 40.93333435058594 12)"><text x="40.93333435058594" y="0" font-family="Virgil, Segoe UI Emoji" font-size="20px" fill="#000000" text-anchor="middle" style="white-space: pre;" direction="ltr">rocks db</text></g><g stroke-linecap="round" transform="translate(756.5 516) rotate(0 32 29)"><path d="M14.5 0 M14.5 0 C27.03 0.77, 39.46 -1.65, 49.5 0 M49.5 0 C58.56 -0.33, 65.44 6.45, 64 14.5 M64 14.5 C63.12 24.18, 62.78 33.16, 64 43.5 M64 43.5 C64.04 53.93, 61.04 57.75, 49.5 58 M49.5 58 C40.42 57.46, 31.57 56.18, 14.5 58 M14.5 58 C5.67 56.09, 1.32 52.36, 0 43.5 M0 43.5 C0.25 30.68, 1.47 19.35, 0 14.5 M0 14.5 C-0.27 5.22, 3.35 1.26, 14.5 0" stroke="#000000" stroke-width="4.5" fill="none" stroke-dasharray="1.5 10"></path></g><g transform="translate(763.341667175293 521) rotate(0 25.15833282470703 24)"><text x="25.15833282470703" y="-24" font-family="Virgil, Segoe UI Emoji" font-size="20px" fill="#000000" text-anchor="middle" style="white-space: pre;" direction="ltr">rocks</text><text x="25.15833282470703" y="0" font-family="Virgil, Segoe UI Emoji" font-size="20px" fill="#000000" text-anchor="middle" style="white-space: pre;" direction="ltr">db</text></g><g stroke-linecap="round"><g transform="translate(396 152) rotate(0 -76.98594753816724 84.32638512924314)"><path d="M-1.14 0.49 C-26.67 28.32, -127.21 140.36, -152.84 168.17" stroke="#000000" stroke-width="4.5" fill="none" stroke-dasharray="1.5 10"></path></g><g transform="translate(396 152) rotate(0 -76.98594753816724 84.32638512924314)"><path d="M-140.67 142.34 C-144.67 147.93, -149.79 157.2, -153.24 169.12" stroke="#000000" stroke-width="4.5" fill="none" stroke-dasharray="1.5 8"></path></g><g transform="translate(396 152) rotate(0 -76.98594753816724 84.32638512924314)"><path d="M-125.48 156.13 C-134.6 157.05, -144.72 161.78, -153.24 169.12" stroke="#000000" stroke-width="4.5" fill="none" stroke-dasharray="1.5 8"></path></g></g><mask></mask><g stroke-linecap="round"><g transform="translate(484 147) rotate(0 66.38413093015555 87.48412953689694)"><path d="M0.68 0.93 C22.85 29.94, 110.38 144.9, 132.09 174.04" stroke="#000000" stroke-width="4.5" fill="none" stroke-dasharray="1.5 10"></path></g><g transform="translate(484 147) rotate(0 66.38413093015555 87.48412953689694)"><path d="M108.47 157.86 C110.94 159.46, 119.45 166.38, 130.46 172.88" stroke="#000000" stroke-width="4.5" fill="none" stroke-dasharray="1.5 8"></path></g><g transform="translate(484 147) rotate(0 66.38413093015555 87.48412953689694)"><path d="M124.86 145.5 C123.66 149.95, 128.5 159.64, 130.46 172.88" stroke="#000000" stroke-width="4.5" fill="none" stroke-dasharray="1.5 8"></path></g></g><mask></mask><g transform="translate(27 108) rotate(0 168.72500610351562 60)"><text x="0" y="-96" font-family="Virgil, Segoe UI Emoji" font-size="20px" fill="#000000" text-anchor="start" style="white-space: pre;" direction="ltr">1) Uses Write Ahead Log (WAL) </text><text x="0" y="-72" font-family="Virgil, Segoe UI Emoji" font-size="20px" fill="#000000" text-anchor="start" style="white-space: pre;" direction="ltr">for durability i.e No loss of data.</text><text x="0" y="-48" font-family="Virgil, Segoe UI Emoji" font-size="20px" fill="#000000" text-anchor="start" style="white-space: pre;" direction="ltr"></text><text x="0" y="-24" font-family="Virgil, Segoe UI Emoji" font-size="20px" fill="#000000" text-anchor="start" style="white-space: pre;" direction="ltr">2) Replicates state from leader</text><text x="0" y="0" font-family="Virgil, Segoe UI Emoji" font-size="20px" fill="#000000" text-anchor="start" style="white-space: pre;" direction="ltr">to follower.</text></g><g transform="translate(333 223) rotate(0 47.052083015441895 15)"><text x="0" y="-15.000000000000002" font-family="Virgil, Segoe UI Emoji" font-size="12.500000000000005px" fill="#000000" text-anchor="start" style="white-space: pre;" direction="ltr">(Handles </text><text x="0" y="0" font-family="Virgil, Segoe UI Emoji" font-size="12.500000000000005px" fill="#000000" text-anchor="start" style="white-space: pre;" direction="ltr">N/A Partitions)</text></g><g transform="translate(572.9479169845581 206) rotate(0 47.052083015441895 15)"><text x="0" y="-15.000000000000002" font-family="Virgil, Segoe UI Emoji" font-size="12.500000000000005px" fill="#000000" text-anchor="start" style="white-space: pre;" direction="ltr">(Handles </text><text x="0" y="0" font-family="Virgil, Segoe UI Emoji" font-size="12.500000000000005px" fill="#000000" text-anchor="start" style="white-space: pre;" direction="ltr">N/A Partitions)</text></g><g transform="translate(740 46) rotate(0 31.049999237060547 12)"><text x="0" y="0" font-family="Virgil, Segoe UI Emoji" font-size="20px" fill="#000000" text-anchor="start" style="white-space: pre;" direction="ltr">USES </text></g></svg>